# xmcd CD database file
#
# Track frame offsets:
#	183
#	11295
#	29895
#	50670
#	81170
#	99158
#	118583
#	161145
#	176608
#	186120
#	220458
#	242683
#	264270
#	284370
#	300383
#	320895
#
# Disc length: 4713 seconds
#
# Revision: 0
# Processed by: cddbd v1.5.2PL0 Copyright (c) Steve Scherf et al.
# Submitted via: CDex 1.51
#
DISCID=df126710
DTITLE=Ada Montellanico - Jimmy Cobb Trio - The Encounter
DYEAR=1993
DGENRE=Jazz
TTITLE0=But Beautiful
TTITLE1=Whisper Not
TTITLE2=The Encounter
TTITLE3=Marta Samba
TTITLE4=Come Rain Or Come Shine
TTITLE5=Blue Daniel
TTITLE6=For All We Know
TTITLE7=Who Can I Turn To
TTITLE8=More Than You Know
TTITLE9=Non Ti Fidar Di Un Bacio A Mezzanotte
TTITLE10=Girl Talk
TTITLE11=Hallucinations - Bouncin' With Bud
TTITLE12=Save Your Love For Me
TTITLE13=Watch What Happens
TTITLE14=A Sleeping Bee
TTITLE15=What Is This Thing Called Love
EXTD=YEAR: 1993
EXTT0=
EXTT1=
EXTT2=
EXTT3=
EXTT4=
EXTT5=
EXTT6=
EXTT7=
EXTT8=
EXTT9=
EXTT10=
EXTT11=
EXTT12=
EXTT13=
EXTT14=
EXTT15=
PLAYORDER=
